<?xml version="1.0" standalone="no"?>
<!DOCTYPE svg PUBLIC "-//W3C//DTD SVG 20010904//EN"
 "http://www.w3.org/TR/2001/REC-SVG-20010904/DTD/svg10.dtd">
<svg version="1.0" xmlns="http://www.w3.org/2000/svg"
 width="700.000000pt" height="700.000000pt" viewBox="0 0 700.000000 700.000000"
 preserveAspectRatio="xMidYMid meet">
<metadata>
Created by potrace 1.11, written by Peter Selinger 2001-2013
</metadata>
<g transform="translate(0.000000,700.000000) scale(0.100000,-0.100000)"
fill="#000000" stroke="none">
<path d="M2398 5387 c-124 -35 -208 -149 -208 -283 0 -308 406 -403 553 -129
29 54 31 203 4 253 -71 129 -217 196 -349 159z"/>
<path d="M3572 5230 c-18 -11 -41 -34 -52 -52 -40 -66 -16 -156 52 -198 32
-19 52 -20 659 -20 l626 0 34 23 c89 59 89 185 0 244 l-34 23 -626 0 c-607 0
-627 -1 -659 -20z"/>
<path d="M2373 4655 c-133 -36 -232 -119 -292 -244 l-36 -76 -3 -170 -4 -170
26 -28 25 -27 388 0 c289 1 392 4 404 13 33 25 39 55 39 189 0 201 -27 285
-126 388 -113 118 -271 165 -421 125z"/>
<path d="M3580 4651 c-107 -56 -107 -202 0 -258 l43 -23 605 0 c585 0 607 1
647 20 107 52 112 198 9 257 l-39 23 -615 0 c-580 0 -617 -1 -650 -19z"/>
<path d="M2109 3477 c-89 -59 -89 -185 0 -244 l34 -23 1357 0 1357 0 34 23
c89 59 89 185 0 244 l-34 23 -1357 0 -1357 0 -34 -23z"/>
<path d="M2116 2897 c-103 -59 -98 -205 9 -257 41 -20 57 -20 1098 -18 1048 3
1056 3 1083 24 50 37 69 72 69 124 0 52 -19 87 -69 124 -27 21 -34 21 -1089
23 l-1062 3 -39 -23z"/>
<path d="M2152 2330 c-38 -9 -77 -42 -99 -84 -33 -63 6 -164 73 -192 50 -21
2698 -21 2748 0 75 31 109 140 64 205 -12 19 -36 44 -51 55 l-28 21 -1337 2
c-735 0 -1352 -2 -1370 -7z"/>
<path d="M2109 1727 c-89 -59 -89 -185 0 -244 l34 -23 1066 0 c1052 0 1066 0
1099 20 42 26 76 99 68 144 -9 48 -40 91 -79 109 -32 16 -126 17 -1095 17
l-1059 0 -34 -23z"/>
</g>
</svg>
